<svg width="128" height="50" viewBox="0 0 128 50" fill="none" xmlns="http://www.w3.org/2000/svg">
<path d="M5 40L9.28 12.6C7.78667 13.1867 6.62667 14.08 5.8 15.28C5 16.4533 4.6 17.8933 4.6 19.6C4.6 20.4 4.65333 21.0667 4.76 21.6C4.89333 22.1333 5.04 22.5733 5.2 22.92C5.36 23.2667 5.52 23.5467 5.68 23.76C5.84 23.9467 5.96 24.12 6.04 24.28C4.49333 24.28 3.24 23.92 2.28 23.2C1.32 22.48 0.84 21.2667 0.84 19.56C0.84 18.3867 1.13333 17.2267 1.72 16.08C2.30667 14.9333 3.08 13.92 4.04 13.04C5.02667 12.1333 6.14667 11.4 7.4 10.84C8.68 10.28 10 10 11.36 10C12.4533 10 13.5333 10.1867 14.6 10.56L18.16 31.64L22.48 10.56H28.24L30.28 40H24.52L23.28 22.04L19.56 40H14.08L11.04 22.04L8.2 40H5ZM49.8834 20V33.6C49.8834 34.72 50.0301 35.4667 50.3234 35.84C50.6434 36.1867 51.1901 36.36 51.9634 36.36C52.7368 36.36 53.3768 36.0267 53.8834 35.36C54.4168 34.6933 54.7234 33.8533 54.8034 32.84H56.4834C56.2701 34.4667 55.8968 35.7733 55.3634 36.76C54.8301 37.72 54.2301 38.4667 53.5634 39C52.8968 39.5067 52.2168 39.84 51.5234 40C50.8301 40.16 50.2168 40.24 49.6834 40.24C48.2701 40.24 47.1901 39.92 46.4434 39.28C45.7234 38.6133 45.2168 37.7067 44.9234 36.56C44.7101 37.0133 44.4568 37.4667 44.1634 37.92C43.8701 38.3467 43.5101 38.7333 43.0834 39.08C42.6834 39.4267 42.2034 39.7067 41.6434 39.92C41.1101 40.1333 40.4834 40.24 39.7634 40.24C38.9101 40.24 38.0701 40.08 37.2434 39.76C36.4168 39.44 35.6568 38.92 34.9634 38.2C34.2968 37.48 33.7501 36.5333 33.3234 35.36C32.9234 34.16 32.7234 32.6933 32.7234 30.96C32.7234 29.7333 32.8568 28.4667 33.1234 27.16C33.4168 25.8533 33.8568 24.6533 34.4434 23.56C35.0568 22.4667 35.8434 21.5733 36.8034 20.88C37.7901 20.16 38.9768 19.8 40.3634 19.8C40.6834 19.8 41.0301 19.8267 41.4034 19.88C41.7768 19.9067 42.1368 20 42.4834 20.16C42.8301 20.2933 43.1501 20.5067 43.4434 20.8C43.7368 21.0667 43.9634 21.44 44.1234 21.92V20H49.8834ZM44.1234 23.84C44.0968 23.7333 44.0434 23.6 43.9634 23.44C43.8834 23.2533 43.7634 23.08 43.6034 22.92C43.4434 22.7333 43.2434 22.5867 43.0034 22.48C42.7634 22.3467 42.4834 22.28 42.1634 22.28C41.5234 22.28 40.9634 22.56 40.4834 23.12C40.0301 23.6533 39.6568 24.3333 39.3634 25.16C39.0968 25.96 38.8968 26.8533 38.7634 27.84C38.6301 28.8 38.5634 29.72 38.5634 30.6C38.5634 32.0133 38.6701 33.12 38.8834 33.92C39.0968 34.6933 39.3501 35.2667 39.6434 35.64C39.9634 35.9867 40.2968 36.2 40.6434 36.28C40.9901 36.3333 41.2834 36.36 41.5234 36.36C41.8168 36.36 42.1101 36.2933 42.4034 36.16C42.7234 36 43.0034 35.7733 43.2434 35.48C43.5101 35.1867 43.7234 34.8267 43.8834 34.4C44.0434 33.9467 44.1234 33.4267 44.1234 32.84V23.84ZM60.2181 20V33.6C60.2181 34.72 60.3648 35.4667 60.6581 35.84C60.9781 36.1867 61.5248 36.36 62.2981 36.36C63.0715 36.36 63.7115 36.0267 64.2181 35.36C64.7515 34.6933 65.0581 33.8533 65.1381 32.84H66.8181C66.6048 34.4667 66.2315 35.7733 65.6981 36.76C65.1648 37.72 64.5648 38.4667 63.8981 39C63.2315 39.5067 62.5515 39.84 61.8581 40C61.1648 40.16 60.5515 40.24 60.0181 40.24C57.9648 40.24 56.5248 39.68 55.6981 38.56C54.8715 37.4133 54.4581 35.9067 54.4581 34.04V20H60.2181ZM54.0181 14.68C54.0181 13.8 54.3248 13.0533 54.9381 12.44C55.5515 11.8 56.2981 11.48 57.1781 11.48C58.0581 11.48 58.8048 11.8 59.4181 12.44C60.0581 13.0533 60.3781 13.8 60.3781 14.68C60.3781 15.56 60.0581 16.3067 59.4181 16.92C58.8048 17.5333 58.0581 17.84 57.1781 17.84C56.2981 17.84 55.5515 17.5333 54.9381 16.92C54.3248 16.3067 54.0181 15.56 54.0181 14.68ZM70.8822 12V33.6C70.8822 34.72 71.0289 35.4667 71.3222 35.84C71.6422 36.1867 72.1889 36.36 72.9622 36.36C73.7355 36.36 74.3755 36.0267 74.8822 35.36C75.4155 34.6933 75.7222 33.8533 75.8022 32.84H77.4822C77.2689 34.4667 76.8955 35.7733 76.3622 36.76C75.8289 37.72 75.2289 38.4667 74.5622 39C73.8955 39.5067 73.2155 39.84 72.5222 40C71.8289 40.16 71.2155 40.24 70.6822 40.24C68.6289 40.24 67.1889 39.68 66.3622 38.56C65.5355 37.4133 65.1222 35.9067 65.1222 34.04V12.8L70.8822 12ZM95.8663 27.92C95.8663 26.32 95.6796 25.1867 95.3063 24.52C94.9329 23.8267 94.4263 23.48 93.7863 23.48C93.0129 23.48 92.4396 23.8533 92.0663 24.6C91.7196 25.32 91.5063 26.1733 91.4263 27.16V40H85.6662V26.2C85.6662 25.88 85.6396 25.56 85.5863 25.24C85.5329 24.8933 85.4396 24.6 85.3063 24.36C85.1729 24.0933 84.9863 23.88 84.7463 23.72C84.5329 23.5333 84.2529 23.44 83.9062 23.44C83.1863 23.44 82.6263 23.8133 82.2263 24.56C81.8529 25.28 81.6263 26.1467 81.5463 27.16V40H75.7863V20H81.5463V22.08C82.1863 21.12 82.8929 20.5067 83.6663 20.24C84.4663 19.9467 85.2129 19.8 85.9063 19.8C86.8929 19.8 87.8129 20.04 88.6663 20.52C89.5196 21 90.2129 21.9067 90.7463 23.24C91.0663 22.52 91.4263 21.9333 91.8263 21.48C92.2529 21.0267 92.6796 20.68 93.1063 20.44C93.5596 20.2 93.9996 20.04 94.4263 19.96C94.8796 19.88 95.3063 19.84 95.7063 19.84C96.4529 19.84 97.1596 19.96 97.8263 20.2C98.5196 20.44 99.1196 20.8533 99.6263 21.44C100.16 22 100.573 22.76 100.866 23.72C101.16 24.6533 101.306 25.8133 101.306 27.2C101.306 27.5467 101.293 27.9867 101.266 28.52C101.266 29.0267 101.253 29.5467 101.226 30.08C101.2 30.6133 101.173 31.1333 101.146 31.64C101.146 32.1467 101.146 32.5733 101.146 32.92C101.146 34.0667 101.28 34.9333 101.546 35.52C101.84 36.08 102.4 36.36 103.226 36.36C103.68 36.36 104.053 36.28 104.346 36.12C104.64 35.9333 104.88 35.68 105.066 35.36C105.253 35.04 105.4 34.6667 105.506 34.24C105.64 33.8133 105.76 33.3467 105.866 32.84H107.546C107.333 34.4133 107.013 35.6933 106.586 36.68C106.16 37.64 105.68 38.3867 105.146 38.92C104.613 39.4533 104.026 39.8133 103.386 40C102.773 40.16 102.16 40.24 101.546 40.24C99.5463 40.24 98.0796 39.56 97.1463 38.2C96.2396 36.84 95.7863 35.0267 95.7863 32.76C95.7863 32.52 95.7863 32.1867 95.7863 31.76C95.8129 31.3067 95.8263 30.84 95.8263 30.36C95.8263 29.88 95.8263 29.4133 95.8263 28.96C95.8529 28.5067 95.8663 28.16 95.8663 27.92ZM114.464 36.44C115.238 36.44 116.011 36.2267 116.784 35.8C117.558 35.3733 118.211 34.88 118.744 34.32C118.744 35.4667 118.598 36.4267 118.304 37.2C118.038 37.9467 117.651 38.5467 117.144 39C116.638 39.4533 116.038 39.7733 115.344 39.96C114.678 40.1467 113.931 40.24 113.104 40.24C111.958 40.24 110.891 40.08 109.904 39.76C108.944 39.4133 108.118 38.8667 107.424 38.12C106.731 37.3733 106.184 36.4133 105.784 35.24C105.384 34.0667 105.184 32.64 105.184 30.96C105.184 29.84 105.304 28.6267 105.544 27.32C105.811 26.0133 106.251 24.8133 106.864 23.72C107.478 22.6 108.304 21.6667 109.344 20.92C110.411 20.1733 111.744 19.8 113.344 19.8C114.678 19.8 115.704 20 116.424 20.4C117.144 20.7733 117.678 21.24 118.024 21.8C118.371 22.3333 118.571 22.8933 118.624 23.48C118.678 24.04 118.704 24.4933 118.704 24.84C118.704 25.8 118.504 26.7067 118.104 27.56C117.704 28.3867 117.158 29.12 116.464 29.76C115.771 30.3733 114.958 30.88 114.024 31.28C113.118 31.6533 112.131 31.8667 111.064 31.92C111.198 33.6533 111.584 34.84 112.224 35.48C112.864 36.12 113.611 36.44 114.464 36.44ZM115.584 24.6C115.584 23.5867 115.424 22.8933 115.104 22.52C114.811 22.12 114.478 21.92 114.104 21.92C113.624 21.92 113.198 22.1733 112.824 22.68C112.478 23.1867 112.171 23.84 111.904 24.64C111.638 25.4133 111.424 26.28 111.264 27.24C111.131 28.2 111.051 29.12 111.024 30C111.691 29.9467 112.304 29.7733 112.864 29.48C113.424 29.16 113.904 28.76 114.304 28.28C114.704 27.8 115.011 27.24 115.224 26.6C115.464 25.96 115.584 25.2933 115.584 24.6Z" fill="#0B6E6B"/>
<circle cx="124" cy="36" r="4" fill="#92BE10"/>
</svg>
